<mxfile host="app.diagrams.net" modified="2024-01-16T12:29:14.594Z" agent="Mozilla/5.0 (Windows NT 10.0; Win64; x64) AppleWebKit/537.36 (KHTML, like Gecko) Chrome/120.0.0.0 Safari/537.36" etag="gx3PD3IpqTt1ind_ALSt" version="22.1.18" type="github">
  <diagram name="PÃ¡gina-1" id="TUS5gieN1rz3YTIe_Czn">
    <mxGraphModel dx="1400" dy="804" grid="1" gridSize="10" guides="1" tooltips="1" connect="1" arrows="1" fold="1" page="1" pageScale="1" pageWidth="827" pageHeight="1169" math="0" shadow="0">
      <root>
        <mxCell id="0" />
        <mxCell id="1" parent="0" />
        <mxCell id="rqhiMFswElO3rEXaBHQ_-1" value="Usuario" style="shape=umlActor;html=1;verticalLabelPosition=bottom;verticalAlign=top;align=center;" vertex="1" parent="1">
          <mxGeometry x="140" y="140" width="30" height="60" as="geometry" />
        </mxCell>
        <mxCell id="rqhiMFswElO3rEXaBHQ_-2" value="Bibliotecario" style="shape=umlActor;html=1;verticalLabelPosition=bottom;verticalAlign=top;align=center;" vertex="1" parent="1">
          <mxGeometry x="220" y="140" width="30" height="60" as="geometry" />
        </mxCell>
        <mxCell id="rqhiMFswElO3rEXaBHQ_-4" value="&lt;u&gt;Actores&lt;/u&gt;" style="text;html=1;strokeColor=none;fillColor=none;align=center;verticalAlign=middle;whiteSpace=wrap;rounded=0;" vertex="1" parent="1">
          <mxGeometry x="150" y="70" width="60" height="30" as="geometry" />
        </mxCell>
      </root>
    </mxGraphModel>
  </diagram>
</mxfile>
